<svg id="Flowah" xmlns="http://www.w3.org/2000/svg" width="160.18" height="167" viewBox="0 0 160.18 167">
  <path id="path152" d="M609.738-777.354c-11.414,17.04-36.2,20.454-36.2,20.454s-6.277-24.218,5.137-41.257,36.2-20.454,36.2-20.454,6.277,24.214-5.137,41.257" transform="translate(-489.747 833.877)" fill="#e4ffec"/>
  <path id="path154" d="M606.385-818.267a44.64,44.64,0,0,0-27.9,18.883c-9.085,13.562-9.533,29.144-8.412,34.859,5.712-1.139,16.543-4.83,25.627-18.392l4.727-3.967C609.516-800.446,607.507-812.552,606.385-818.267Zm-39.209,58.073-.427-1.647c-.265-1.023-6.357-25.248,5.4-42.8s36.478-21.142,37.525-21.285l1.684-.233.427,1.647c.265,1.023,6.357,25.248-5.4,42.8h0c-11.756,17.551-36.477,21.138-37.524,21.281l-1.684.233" transform="translate(-484.807 839.295)" fill="#343a1a"/>
  <path id="path156" d="M420.04-790.044c12.68,16.123,8.267,40.746,8.267,40.746s-24.971-1.515-37.65-17.634-8.267-40.746-8.267-40.746,24.971,1.512,37.65,17.634" transform="translate(-353.203 826.026)" fill="#e4ffec"/>
  <path id="path158" d="M381.218-807.233c-.667,5.656-2.031,18.024,7.393,30.673.143.192-.222.766,0,1.048,10.111,12.855,27.345,18.314,33.124,19.009.682-5.783,1.963-24.65-8.129-37.483l-2.412,2.223C401.082-804.617,387-806.537,381.218-807.233Zm43.739,54.825-1.7-.105c-1.054-.064-25.977-1.756-39.037-18.36s-8.833-41.224-8.646-42.265l.3-1.673,1.7.1c1.054.064,25.977,1.756,39.037,18.363h0c13.06,16.6,8.833,41.224,8.647,42.265l-.3,1.673" transform="translate(-348.27 831.148)" fill="#343a1a"/>
  <path id="path160" d="M317.952-594.138c19.251-7.076,41.306,4.73,41.306,4.73S350.1-566.13,330.852-559.05s-41.306-4.73-41.306-4.73,9.156-23.281,28.406-30.358" transform="translate(-287.073 674.326)" fill="#e4ffec"/>
  <path id="path162" d="M289.847-571.047c5.29,2.437,18.685,7.291,34.006,1.654s24.347-18.732,26.8-24.014c-5.289-2.437-22.834-9.483-38.156-3.85l1.544,2.823C298.719-588.8,292.3-576.333,289.847-571.047ZM311.2-559.775c-14.938,0-27.963-6.851-28.673-7.234l-1.5-.8.623-1.583c.387-.981,9.7-24.165,29.526-31.451s41.936,4.339,42.868,4.835l1.5.805-.623,1.583c-.387.981-9.7,24.161-29.526,31.452a41.037,41.037,0,0,1-14.195,2.395" transform="translate(-280.958 679.238)" fill="#343a1a"/>
  <path id="path164" d="M499.9-514.974c-.783-20.5,17.261-37.825,17.261-37.825s19.312,15.9,20.095,36.4-17.261,37.825-17.261,37.825-19.312-15.9-20.095-36.4" transform="translate(-438.089 643.021)" fill="#e4ffec"/>
  <path id="path166" d="M502.085-521.412c.622,16.314,8.868,26.47,13.135,30.437,3.952-4.279,12.824-15.7,12.2-32.008s-10.764-29.707-15.031-33.674C508.439-552.379,501.463-537.722,502.085-521.412Zm13.135,38.881-1.313-1.079c-.816-.673-19.984-16.69-20.789-37.8s17.086-38.543,17.848-39.276l1.226-1.177,1.313,1.083c.816.669,19.984,16.687,20.79,37.8s-17.086,38.543-17.848,39.276l-1.227,1.177" transform="translate(-433.22 649.531)" fill="#343a1a"/>
  <path id="path168" d="M617.253-565.58c-19.734-5.591-30.638-28.105-30.638-28.105s21.091-13.453,40.825-7.866,30.638,28.106,30.638,28.106-21.091,13.452-40.825,7.866" transform="translate(-500.372 679.001)" fill="#e4ffec"/>
  <path id="path170" d="M611.833-576.384a45.977,45.977,0,0,0,34.041-3.9,46.154,46.154,0,0,0-27.121-20.52c-15.738-4.459-30.771.1-35.854,2.94,2.846,5.076,13.227,17.03,28.935,21.478Zm9.413,9.189a39.437,39.437,0,0,1-10.782-1.444c-20.326-5.756-31.377-28.161-31.837-29.113l-.742-1.53,1.434-.914c.89-.568,22.05-13.848,42.374-8.092s31.377,28.162,31.838,29.113l.741,1.53-1.433.914c-.733.466-15.177,9.535-31.592,9.535" transform="translate(-494.102 683.899)" fill="#343a1a"/>
  <path id="path172" d="M537.1-826.541c0,20.511-18.691,37.141-18.691,37.141s-18.692-16.63-18.692-37.141,18.692-37.137,18.692-37.137S537.1-847.051,537.1-826.541" transform="translate(-437.976 866.234)" fill="#b4e2c2"/>
  <path id="path174" d="M513.538-860.307c-4.11,4.121-11.271,10.93-11.271,27.259,0,16.352,7.157,30.365,11.27,34.482,4.11-4.121,11.794-18.156,11.794-34.482C525.331-849.4,517.651-856.189,513.538-860.307Zm0,66.953-1.27-1.132c-.79-.7-19.332-17.439-19.332-38.562s18.543-37.866,19.332-38.569l1.27-1.128,1.27,1.128c.79.7,19.333,17.442,19.333,38.569s-18.544,37.862-19.333,38.562l-1.27,1.132" transform="translate(-433.108 872.744)" fill="#343a1a"/>
  <path id="path176" d="M330.5-692.127c19.506,6.339,29.544,29.252,29.544,29.252s-21.589,12.641-41.1,6.3-29.544-29.252-29.544-29.252,21.589-12.641,41.1-6.3" transform="translate(-286.974 744.338)" fill="#c5ffd7"/>
  <path id="path178" d="M294.26-687.655c2.019,5.689,3.72,14.011,19.247,19.053,16.076,2.4,32.635,2.639,37.823,0-2.651-5.181-14.054-15.246-29.581-20.289C306.192-693.944,299.448-690.295,294.26-687.655Zm30.363,29.878a40.165,40.165,0,0,1-12.457-1.888c-20.092-6.527-30.281-29.335-30.7-30.3l-.682-1.561,1.467-.857c.912-.534,22.56-13,42.652-6.471s30.28,29.339,30.7,30.305l.682,1.556-1.468.861c-.723.425-14.5,8.354-30.2,8.354" transform="translate(-280.779 749.245)" fill="#343a1a"/>
  <path id="path180" d="M396.342-534.917c12.055-16.592,36.951-19.055,36.951-19.055s5.348,24.436-6.707,41.028-36.95,19.059-36.95,19.059-5.349-24.435,6.707-41.032" transform="translate(-358.089 643.864)" fill="#b4e2c2"/>
  <path id="path182" d="M426.8-557.1c-5.748.922-19.551,8.679-29.148,21.888-9.613,13.231-8.7,22.557-7.792,28.31,5.749-.921,14.1-1.9,23.7-15.107C423.168-535.249,427.7-551.351,426.8-557.1Zm-43.6,60.016-.363-1.662c-.226-1.034-5.389-25.474,7.028-42.562s37.258-19.736,38.309-19.838l1.692-.169.364,1.662c.226,1.03,5.389,25.473-7.028,42.562s-37.257,19.736-38.309,19.837l-1.692.169" transform="translate(-353.15 649.139)" fill="#343a1a"/>
  <path id="path184" d="M581.916-510.9c-12.056-16.593-6.707-41.032-6.707-41.032s24.895,2.466,36.951,19.059c6.655,9.159,8.006,20.709,7.877,29.5a64.08,64.08,0,0,1-1.17,11.536s-24.895-2.466-36.951-19.059" transform="translate(-491.332 642.399)" fill="#b4e2c2"/>
  <path id="path186" d="M584.284-518.472c9.6,13.209,18.732,12.785,24.484,13.706.9-5.753,2.37-16.237-7.225-29.442s-23.961-19.921-29.713-20.842C570.928-549.294,574.689-531.677,584.284-518.472Zm31.149,23.438-1.692-.169c-1.052-.105-25.892-2.745-38.309-19.837h0c-12.417-17.089-7.254-41.532-7.028-42.562l.363-1.662,1.693.169c1.051.1,25.891,2.745,38.309,19.833s7.253,41.532,7.028,42.566l-.363,1.662" transform="translate(-486.393 647.664)" fill="#343a1a"/>
  <path id="path188" d="M630.77-653.254c-19.506,6.335-41.1-6.3-41.1-6.3s10.037-22.913,29.544-29.252,41.1,6.3,41.1,6.3-10.037,22.913-29.544,29.252" transform="translate(-502.567 741.953)" fill="#c5ffd7"/>
  <path id="path190" d="M586-665.282c5.191,2.635,19.837,5.046,35.362,0,15.555-5.054,21.851-14.327,24.5-19.512-5.191-2.636-15.333-6.9-30.859-1.856C599.447-681.593,588.647-670.467,586-665.282Zm26.707,10.825c-15.7,0-29.472-7.934-30.2-8.355l-1.467-.861.682-1.556c.424-.966,10.613-23.778,30.7-30.3s41.741,5.937,42.652,6.471l1.468.857-.682,1.557c-.424.97-10.613,23.778-30.7,30.3h0a40.173,40.173,0,0,1-12.457,1.888" transform="translate(-496.372 746.861)" fill="#343a1a"/>
  <path id="path192" d="M525.44-641.441a25.449,25.449,0,0,1-25.451,25.451,25.449,25.449,0,0,1-25.451-25.451,25.452,25.452,0,0,1,25.451-25.451,25.452,25.452,0,0,1,25.451,25.451" transform="translate(-419.899 724.94)" fill="#fff"/>
  <path id="path194" d="M495.121-669.841A23.564,23.564,0,0,0,471.583-646.3a23.567,23.567,0,0,0,23.539,23.541A23.568,23.568,0,0,0,518.661-646.3,23.564,23.564,0,0,0,495.121-669.841Zm0,50.9A27.4,27.4,0,0,1,467.759-646.3a27.392,27.392,0,0,1,27.362-27.361A27.391,27.391,0,0,1,522.484-646.3a27.4,27.4,0,0,1-27.363,27.365" transform="translate(-415.031 729.804)" fill="#343a1a"/>
  <circle id="Ellipse_19" data-name="Ellipse 19" cx="25" cy="25" r="25" transform="translate(55.309 58)" fill="#343a1a"/>
  <ellipse id="Ellipse_20" data-name="Ellipse 20" cx="19.286" cy="19.768" rx="19.286" ry="19.768" transform="translate(60.845 63.734)" fill="#95bc79"/>
</svg>
