<svg width="170" height="170" viewBox="0 0 170 170" fill="none" xmlns="http://www.w3.org/2000/svg">
<path d="M111.161 67.3498C103.821 78.308 87.8817 80.5035 87.8817 80.5035C87.8817 80.5035 83.845 64.9293 91.1852 53.9717C98.5254 43.0142 114.465 40.818 114.465 40.818C114.465 40.818 118.502 56.3897 111.161 67.3498Z" fill="#95BC79"/>
<path d="M112.182 44.5234C104.845 46.0724 98.405 50.431 94.2398 56.6668C88.3974 65.3884 88.1093 75.4089 88.8302 79.0842C92.5035 78.3517 99.4688 75.9781 105.311 67.2565L108.35 64.7054C114.195 55.9839 112.904 48.1986 112.182 44.5234ZM86.9672 81.8694L86.6926 80.8102C86.5222 80.1524 82.6045 64.5736 90.1653 53.2861C97.726 41.9987 113.624 39.69 114.297 39.598L115.38 39.4482L115.655 40.5073C115.825 41.1652 119.743 56.744 112.182 68.0315C104.622 79.3183 88.7241 81.625 88.0508 81.717L86.9678 81.8668" fill="#95BC79"/>
<path d="M76.9788 54.1402C85.1331 64.5087 82.2952 80.3434 82.2952 80.3434C82.2952 80.3434 66.2367 79.3691 58.083 69.0032C49.9293 58.6373 52.7666 42.8 52.7666 42.8C52.7666 42.8 68.8251 43.7723 76.9788 54.1402Z" fill="#95BC79"/>
<path d="M55.1852 46.38C54.7563 50.0173 53.8791 57.971 59.9396 66.1054C60.0315 66.2289 59.7968 66.598 59.9396 66.7793C66.4418 75.0462 77.5248 78.5569 81.2412 79.0038C81.6797 75.2848 82.5035 63.1517 76.0135 54.899L74.4624 56.3286C67.9595 48.0623 58.9035 46.8276 55.1852 46.38ZM83.3132 81.6372L82.2199 81.5697C81.5421 81.5286 65.5145 80.4405 57.1158 69.7627C48.7171 59.0848 51.4354 43.252 51.5556 42.5826L51.7486 41.5067L52.8418 41.571C53.5196 41.6122 69.5473 42.7003 77.946 53.38C86.3447 64.0552 83.6264 79.8906 83.5068 80.5601L83.3138 81.636" fill="#95BC79"/>
<path d="M53.8547 82.5684C66.2347 78.018 80.418 85.6102 80.418 85.6102C80.418 85.6102 74.5286 100.58 62.1505 105.133C49.7723 109.686 35.5871 102.091 35.5871 102.091C35.5871 102.091 41.4752 87.1196 53.8547 82.5684" fill="#95BC79"/>
<path d="M39.7132 100.577C43.1151 102.144 51.7293 105.266 61.582 101.641C71.4347 98.0155 77.2392 89.5943 78.8167 86.1975C75.4154 84.6303 64.1325 80.0991 54.2791 83.7216L55.272 85.537C45.4186 89.1601 41.2907 97.1775 39.7132 100.577ZM53.445 107.826C43.8386 107.826 35.4624 103.42 35.0058 103.174L34.0412 102.659L34.4418 101.641C34.6907 101.01 40.6797 86.101 53.4296 81.4155C66.1794 76.7299 80.3981 84.2058 80.9974 84.5248L81.9621 85.0425L81.5614 86.0605C81.3125 86.6914 75.3235 101.598 62.5736 106.287C59.6453 107.334 56.5549 107.854 53.445 107.826Z" fill="#95BC79"/>
<path d="M73.7466 113.346C73.2431 100.163 84.847 89.0212 84.847 89.0212C84.847 89.0212 97.2662 99.2463 97.7698 112.43C98.2733 125.613 86.6695 136.754 86.6695 136.754C86.6695 136.754 74.2502 126.529 73.7466 113.346" fill="#95BC79"/>
<path d="M78.283 113.392C78.683 123.884 83.9858 130.415 86.7299 132.966C89.2714 130.214 94.9768 122.869 94.5756 112.382C94.1743 101.894 87.6534 93.2778 84.9093 90.7266C82.3691 93.4778 77.883 102.903 78.283 113.392ZM86.7299 138.396L85.8855 137.702C85.3608 137.269 73.0341 126.969 72.5164 113.394C71.9987 99.818 83.5042 88.607 83.9942 88.1356L84.7826 87.3787L85.627 88.0752C86.1518 88.5054 98.4784 98.8064 98.9968 112.384C99.5151 125.961 88.009 137.17 87.519 137.642L86.7299 138.399" fill="#95BC79"/>
<path d="M109.161 103.94C96.4707 100.345 89.4585 85.8662 89.4585 85.8662C89.4585 85.8662 103.022 77.2147 115.713 80.8076C128.403 84.4006 135.415 98.8823 135.415 98.8823C135.415 98.8823 121.852 107.533 109.161 103.941" fill="#95BC79"/>
<path d="M109.708 100.142C117.056 102.158 124.898 101.259 131.599 97.634C127.677 91.1756 121.44 86.4562 114.158 84.4378C104.037 81.5703 94.3698 84.5022 91.1009 86.3285C92.9312 89.5928 99.6064 97.2816 109.708 100.142ZM115.761 106.051C113.418 106.064 111.085 105.751 108.828 105.123C95.7563 101.421 88.6495 87.0128 88.3537 86.4005L87.8765 85.4166L88.7987 84.8289C89.371 84.4636 102.979 75.9234 116.049 79.625C129.119 83.3266 136.227 97.7356 136.523 98.3472L137 99.3311L136.078 99.9189C135.607 100.219 126.318 106.051 115.761 106.051Z" fill="#95BC79"/>
<path d="M97.7421 56.5267C97.7421 69.7171 85.7222 80.4116 85.7222 80.4116C85.7222 80.4116 73.7016 69.7171 73.7016 56.5267C73.7016 43.3363 85.7222 32.6444 85.7222 32.6444C85.7222 32.6444 97.7421 43.337 97.7421 56.5267Z" fill="#343A1A"/>
<path d="M85.7203 38.9987C83.0772 41.6489 78.472 46.0277 78.472 56.5286C78.472 67.0444 83.0746 76.056 85.7196 78.7035C88.3627 76.0534 93.3042 67.0277 93.3042 56.5286C93.3042 46.0129 88.3653 41.6469 85.7203 38.9987ZM85.7203 82.0553L84.9035 81.3273C84.3955 80.8772 72.4714 70.1126 72.4714 56.5286C72.4714 42.9447 84.3961 32.1775 84.9035 31.7254L85.7203 31L86.537 31.7254C87.045 32.1756 98.9698 42.9421 98.9698 56.5286C98.9698 70.1151 87.0444 80.8772 86.537 81.3273L85.7203 82.0553Z" fill="#343A1A"/>
<path d="M61.9878 64.5768C74.5318 68.6534 80.9871 83.3884 80.9871 83.3884C80.9871 83.3884 67.1035 91.5177 54.5563 87.4399C42.009 83.3621 35.5569 68.6283 35.5569 68.6283C35.5569 68.6283 49.4405 60.499 61.9878 64.5768Z" fill="#343A1A"/>
<path d="M42.6662 70.6084C43.9646 74.2669 45.0585 79.6187 55.0437 82.8612C65.382 84.4046 76.0309 84.5583 79.3672 82.8612C77.6624 79.5293 70.3293 73.0567 60.344 69.8136C50.3395 66.5641 46.0026 68.9107 42.6662 70.6084ZM62.1923 89.8226C59.4747 89.8418 56.7712 89.4321 54.1813 88.6084C41.2604 84.411 34.708 69.7434 34.4386 69.1229L34 68.119L34.9434 67.5679C35.5299 67.2245 49.4515 59.2078 62.3724 63.4065C75.2933 67.6052 81.845 82.274 82.1151 82.8952L82.5537 83.8959L81.6096 84.4496C81.1447 84.7229 72.2849 89.8219 62.1884 89.8219" fill="#343A1A"/>
<path d="M58.5968 101.063C66.3492 90.3929 82.3595 88.809 82.3595 88.809C82.3595 88.809 85.7987 104.524 78.0463 115.194C70.2939 125.864 54.2842 127.45 54.2842 127.45C54.2842 127.45 50.8444 111.736 58.5974 101.063" fill="#343A1A"/>
<path d="M81.3601 90.1898C77.6637 90.7827 68.7871 95.7711 62.6154 104.266C56.4334 112.774 57.0206 118.772 57.6045 122.471C61.3016 121.879 66.672 121.25 72.8457 112.756C79.0244 104.242 81.9389 93.8869 81.3601 90.1898ZM53.3215 128.785L53.0881 127.716C52.9428 127.051 49.6225 111.334 57.6077 100.345C65.5929 89.3563 81.5679 87.6534 82.2437 87.5878L83.3318 87.4791L83.5659 88.5479C83.7113 89.2103 87.0315 104.929 79.0463 115.919C71.0611 126.909 55.0868 128.611 54.4103 128.676L53.3222 128.785" fill="#343A1A"/>
<path d="M92.2502 115.566C84.4971 104.895 87.937 89.1788 87.937 89.1788C87.937 89.1788 103.947 90.7646 111.7 101.435C115.979 107.325 116.848 114.753 116.765 120.406C116.739 122.897 116.487 125.38 116.013 127.825C116.013 127.825 100.003 126.239 92.2502 115.568" fill="#343A1A"/>
<path d="M96.9492 114.082C103.123 122.577 108.996 122.304 112.695 122.896C113.273 119.197 114.219 112.455 108.048 103.963C101.878 95.4708 92.6393 91.1518 88.9402 90.5595C88.3602 94.2611 90.7788 105.59 96.9492 114.082ZM116.981 129.155L115.893 129.046C115.216 128.979 99.2418 127.281 91.2566 116.289C83.2714 105.3 86.5917 89.5807 86.737 88.9184L86.9705 87.8495L88.0592 87.9582C88.7351 88.0225 104.709 89.7235 112.695 100.713C120.681 111.702 117.36 127.421 117.215 128.086L116.981 129.155" fill="#343A1A"/>
<path d="M116.442 88.0417C103.898 92.1157 90.0116 83.9903 90.0116 83.9903C90.0116 83.9903 96.4662 69.2552 109.011 65.1787C121.556 61.1022 135.442 69.2302 135.442 69.2302C135.442 69.2302 128.987 83.9652 116.442 88.0417Z" fill="#343A1A"/>
<path d="M91.6354 83.4631C94.9736 85.1576 104.392 86.7081 114.376 83.4631C124.379 80.2129 128.428 74.2495 130.132 70.9151C126.794 69.22 120.271 66.4778 110.287 69.7215C100.283 72.9736 93.3376 80.1286 91.6354 83.4631ZM108.81 90.4245C98.7138 90.4245 89.8572 85.3222 89.3891 85.0515L88.4456 84.4978L88.8842 83.4971C89.1569 82.8759 95.7093 68.2058 108.627 64.0116C121.545 59.8174 135.47 67.8296 136.056 68.173L137 68.7241L136.561 69.7254C136.289 70.3492 129.736 85.0167 116.819 89.211C114.229 90.0345 111.525 90.4443 108.808 90.4251" fill="#343A1A"/>
<path d="M101.869 84.6977C101.869 86.8471 101.446 88.9755 100.623 90.9613C99.8008 92.9472 98.5952 94.7515 97.0753 96.2714C95.5555 97.7913 93.7511 98.9969 91.7653 99.8193C89.7794 100.642 87.651 101.065 85.5016 101.065C83.3522 101.065 81.2238 100.642 79.238 99.8193C77.2521 98.9969 75.4477 97.7913 73.9279 96.2714C72.408 94.7515 71.2024 92.9472 70.3799 90.9613C69.5575 88.9755 69.1342 86.8471 69.1344 84.6977C69.1346 80.3569 70.859 76.1939 73.9284 73.1245C76.9978 70.0551 81.1608 68.3306 85.5016 68.3304C89.8424 68.3306 94.0054 70.0551 97.0748 73.1245C100.144 76.1939 101.869 80.3569 101.869 84.6977" fill="white"/>
<path d="M85.5016 69.5621C81.488 69.5665 77.6402 71.163 74.8024 74.0011C71.9645 76.8393 70.3685 80.6874 70.3646 84.701C70.369 88.7145 71.9653 92.5624 74.8031 95.4005C77.641 98.2386 81.4887 99.8351 85.5022 99.8399C89.5157 99.835 93.3633 98.2383 96.2012 95.4003C99.039 92.5622 100.635 88.7144 100.64 84.701C100.636 80.6872 99.0398 76.8389 96.2017 74.0007C93.3636 71.1625 89.5154 69.5662 85.5016 69.5621V69.5621ZM85.5016 102.295C80.8371 102.289 76.3655 100.433 73.0671 97.1349C69.7686 93.8368 67.9124 89.3654 67.9055 84.701C67.9107 80.0359 69.7663 75.5634 73.0651 72.2647C76.3639 68.966 80.8365 67.1106 85.5016 67.1055C90.1669 67.1102 94.6397 68.9655 97.9387 72.2643C101.238 75.563 103.093 80.0357 103.098 84.701C103.092 89.3662 101.237 93.8387 97.9379 97.1377C94.6392 100.437 90.1668 102.293 85.5016 102.299" fill="#343A1A"/>
<path d="M85.6424 100.454C94.5216 100.454 101.72 93.256 101.72 84.3768C101.72 75.4976 94.5216 68.2996 85.6424 68.2996C76.7633 68.2996 69.5653 75.4976 69.5653 84.3768C69.5653 93.256 76.7633 100.454 85.6424 100.454Z" fill="#343A1A"/>
<path d="M85.528 97.4121C92.3777 97.4121 97.9306 91.7205 97.9306 84.6996C97.9306 77.6787 92.3777 71.9871 85.528 71.9871C78.6782 71.9871 73.1254 77.6787 73.1254 84.6996C73.1254 91.7205 78.6782 97.4121 85.528 97.4121Z" fill="#95BC79"/>
</svg>
